<svg width="134" height="134" viewBox="0 0 134 134" fill="none" xmlns="http://www.w3.org/2000/svg">
<path d="M8.11328 86.4067H39.4808V96.9388H38.1926V92.8322C38.1926 92.8322 37.8932 88.0412 33.5317 88.0412H17.8647V98.4458H27.7801C27.7801 98.4458 29.831 98.4458 29.9194 96.3897V92.1606H31.1919V106.394H29.9194V102.464C29.9194 102.464 29.7579 100.127 27.7801 100.096H17.8908V110.157C17.8908 110.157 17.6775 111.932 20.2434 111.932H22.6012V113.551H8.11328V111.929H11.0723C11.0723 111.929 12.9043 111.919 12.9043 110.061V90.3888C12.9043 90.3888 12.6075 88.0414 10.3279 88.0414H8.11328V86.4067Z" fill="#01A0C6"/>
<path d="M45.8413 90.2401C45.8413 90.2401 45.7892 88.0408 42.2186 88.0408C41.261 88.0408 41.1256 88.0408 41.1256 88.0408V86.4221H55.7879V88.0045H54.1197C54.1197 88.0045 51.127 88.0306 51.127 90.3259L51.1296 109.735C51.1296 109.735 51.4627 111.958 54.1407 111.958H55.7829V113.535H41.1233L41.1259 111.958H43.1325C43.1325 111.958 45.891 111.916 45.8416 109.725V90.2401H45.8413Z" fill="#01A0C6"/>
<path d="M61.9298 110.23C61.961 112.004 59.2935 111.958 59.2935 111.958H57.188V113.53L68.2875 113.54V111.955H66.2602C63.1868 111.911 63.5616 110.375 63.5616 110.375V91.8041L87.9693 113.535H89.0622V90.2948C88.9633 87.76 91.8364 88.0149 91.8364 88.0149H93.8037V86.4221H82.7241V87.994H83.8118C87.8965 87.994 87.4775 90.3309 87.4775 90.3309V105.178L65.4588 86.4219H57.4275L57.4222 87.9911C59.7617 88.2487 61.4872 90.0158 61.9298 90.3594V110.23Z" fill="#01A0C6"/>
<path d="M95.3289 111.958V113.532H125.835V102.566H124.581V106.071C124.581 106.071 124.901 111.958 119.126 111.958H104.927V100.757H114.348C114.348 100.757 117.398 100.616 117.409 102.802V107.164H118.725L118.728 92.7464H117.427V97.4673C117.427 97.4673 117.224 99.1198 114.301 99.1277H104.932V88.002H119.272C119.272 88.002 124.617 88.0357 124.612 93.4593V97.3215H125.833V86.4275H95.3032V87.9941H97.6404C97.6404 87.9941 100.092 87.9447 100.092 90.3415L100.084 109.126C100.084 109.126 100.003 112.015 97.989 111.958H95.3289V111.958Z" fill="#01A0C6"/>
<path d="M48.3659 54.006C57.6334 54.006 65.1468 46.4926 65.1468 37.2251C65.1468 27.9602 57.6334 20.4497 48.3659 20.4497C39.1011 20.4497 31.5876 27.9605 31.5876 37.2277C31.5876 46.4952 39.1011 54.006 48.3659 54.006Z" fill="#01A0C6"/>
<path d="M112.547 44.9233L117.911 48.1192L121.099 43.643L115.563 40.4419L112.547 44.9233Z" fill="#01A0C6"/>
<path d="M94.1267 48.4419C94.1267 48.4419 92.7553 52.1842 89.9366 53.0795C86.9177 54.0424 85.243 53.8812 83.9003 52.9207C82.5574 51.9604 82.5574 51.9604 82.5574 51.9604C82.5574 51.9604 81.3863 51.1614 80.5482 49.3995L78.534 53.7197C78.534 53.7197 82.391 59.4814 82.5574 62.3598C82.7265 65.2382 79.3721 67.1587 78.534 67.7991C77.696 68.4393 69.4796 72.9207 57.0736 73.5585C44.6624 74.1987 36.4463 73.5611 28.2278 70.5189C20.0119 67.4819 16.4905 66.0401 12.1315 60.9209C7.77236 55.8019 8.94355 52.442 8.94355 50.8416C8.94355 50.8416 5.08922 62.2015 15.4863 70.04C15.4863 70.04 20.3477 74.9977 31.5825 77.5586C42.8173 80.1195 44.8291 79.4791 48.1836 79.4791C51.5357 79.4791 61.5993 78.9978 69.8154 75.9553C78.0344 72.9183 79.7102 70.9976 81.3863 68.2781C83.0623 65.5612 84.0668 61.7199 84.2361 59.0001C84.2361 59.0001 90.5223 59.3985 92.62 55.6405C94.6656 51.9683 94.1267 50.0397 94.1267 48.4419Z" fill="#01A0C6"/>
<path d="M90.4391 62.6799L86.918 66.68L91.4462 70.3572L87.756 74.5188L92.9558 78.1985L96.4767 74.1984L92.2843 70.9976L95.9745 66.5186L90.4391 62.6799Z" fill="#01A0C6"/>
<path d="M119.87 59.2212C120.516 59.8614 120.997 60.5795 121.432 61.0794C122.27 62.0396 121.099 62.6801 121.099 62.6801C119.922 63.159 118.918 63.4791 116.904 63.159C114.894 62.8389 114.559 61.0797 114.39 59.7993C114.223 58.519 115.563 57.3999 117.575 57.8786C118.541 58.1073 119.274 58.6331 119.87 59.2212L124.399 56.2855C122.978 53.946 120.524 52.8397 119.589 52.8397C118.582 52.8397 118.413 52.6811 116.654 54.2009C114.892 55.7207 113.469 59.4787 112.964 60.8399C112.461 62.1985 111.876 64.3585 113.05 66.5967C114.223 68.8375 116.821 68.8375 116.821 68.8375C119.423 68.7569 119.506 68.0385 120.678 67.2395C121.854 66.4404 122.692 64.6786 122.692 64.6786C124.285 66.6773 123.447 69.5583 123.447 69.5583C119.085 73.3995 116.066 73.3995 112.547 73.5584C109.023 73.7173 106.171 71.4791 104.495 68.1165C102.819 64.7594 103.324 51.9603 103.324 51.9603C103.324 33.2433 101.981 27.1641 101.981 27.1641L99.2954 30.8438C101.143 41.5609 100.893 62.1203 100.977 65.2381C101.06 68.3586 101.227 69.7978 101.981 72.7594C102.736 75.7184 104.75 77.077 106.929 78.2767C109.11 79.479 113.974 79.0783 115.48 78.6774C116.99 78.2767 120.344 76.8375 121.685 75.3151C123.025 73.7953 124.956 69.8786 125.542 67.1589C126.127 64.4367 126.044 59.5596 124.704 56.8401C124.607 56.6475 124.506 56.4627 124.399 56.2858L119.87 59.2212Z" fill="#01A0C6"/>
</svg>
