<svg width="191" height="191" viewBox="0 0 191 191" fill="none" xmlns="http://www.w3.org/2000/svg">
<path d="M187.667 27.4407H0.137695V169.525H187.667V27.4407Z" fill="white"/>
<path d="M190.166 0.076416H0.269287V190.048H190.166V0.076416Z" fill="white"/>
<path d="M141.532 138.558C143.391 138.569 144.604 139.596 144.595 140.903C144.59 141.815 143.889 142.606 142.902 142.601C140.809 142.588 141.34 141.055 140.47 141.049C138.142 141.035 136.425 145.396 134.661 149.192C133.952 150.719 133.541 151 132.961 150.997C131.502 150.988 131.184 147.067 130.61 145.36C129.374 147.906 127.027 150.96 123.187 150.936C120.978 150.923 118.783 149.773 118.805 146.312C118.83 142.452 121.401 139.683 124.018 139.699C125.997 139.711 127.321 141.709 127.312 143.127C127.287 146.934 122.165 147.012 122.16 147.808C122.155 148.546 123.492 148.84 124.246 148.845C127.507 148.865 129.72 144.584 130.459 141.669C130.587 141.164 131.051 140.084 131.983 140.089C133.032 140.096 132.524 146.509 133.979 146.519C134.853 146.524 136.064 138.524 141.532 138.558ZM93.811 133.933C94.1954 140.794 91.8366 143.643 90.6489 146.106C90.8407 147.065 92.4944 148.705 94.0642 148.715C94.6439 148.718 95.3469 148.438 95.5241 148.21C95.4099 147.815 95.2945 147.302 95.2992 146.563C95.3249 142.587 97.9647 139.252 100.233 139.267C102.036 139.278 103.068 141.612 103.058 143.148C103.046 144.962 101.465 146.432 99.1313 147.838C99.5374 148.234 100.288 148.526 100.931 148.531C104.248 148.551 106.01 144.643 107.318 141.071C107.554 140.39 107.97 139.429 108.783 139.434C110.178 139.443 110.704 148.418 113.024 148.432C114.016 148.439 114.841 146.454 114.851 144.925C114.859 143.788 114.453 143.671 114.463 142.024C114.475 140.21 115.474 138.684 116.815 138.692C117.628 138.697 117.917 139.49 117.911 140.453C117.887 144.089 115.165 150.83 111.215 150.806C108.243 150.788 108.507 145.792 107.462 145.786C106.293 145.778 104.633 150.822 98.8803 150.787C97.9455 150.781 96.9617 150.321 96.1551 149.405C94.755 150.307 93.5864 150.697 92.2486 150.689C90.0986 150.676 89.1802 148.512 88.3099 148.506C87.2609 148.5 86.0868 150.707 82.5936 150.686C79.8025 150.669 79.3604 147.035 78.3737 147.029C77.4994 147.024 76.1389 150.646 74.6862 150.637C72.24 150.622 71.7617 144.318 69.6063 144.305C67.9204 144.294 62.5499 150.662 61.1042 150.506C60.523 150.443 60.2808 150.017 60.3462 149.45C60.4332 148.665 61.1398 146.566 61.4267 145.573C61.9084 143.849 62.3521 141.96 62.5972 141.358C62.8401 140.75 63.4892 140.32 64.0069 140.37C64.2682 140.396 64.3433 140.872 64.4218 141.265C64.7061 142.671 65.1075 144.104 65.5703 144.108C66.3874 144.113 69.1183 139.075 70.6873 139.084C72.6099 139.096 72.7885 147.049 75.4037 147.065C76.278 147.07 76.927 146.054 77.514 144.805C77.5875 142.701 78.1874 139.702 79.9322 139.713C81.1545 139.72 81.7196 142.391 80.8295 144.716C80.8115 147.495 82.666 148.188 83.89 148.195C84.7614 148.201 86.2624 147.934 87.4541 146.097C86.7889 144.63 86.3266 141.671 86.2665 140.595C85.955 135.087 88.1604 129.923 90.5393 129.795C92.2828 129.702 93.6675 131.322 93.811 133.933ZM59.0692 132.996C59.5812 134.817 59.6248 137.198 59.426 140.605C59.1669 145.259 56.7442 150.868 50.8138 150.715C45.6954 150.574 43.4505 147.323 43.2468 142.381C43.1506 140.052 43.3359 137.726 44.3455 134.44C44.8807 132.681 45.3521 132.057 46.9802 131.729C48.2597 131.508 48.1364 132.812 47.8369 134.349C47.178 137.75 46.8709 139.392 47.0814 143.256C47.2833 147.346 49.1963 148.948 51.2899 148.961C54.4304 149.04 55.8411 146.493 56.4493 142.803C56.9306 139.855 56.5919 138.433 56.3043 137.524C56.142 137.007 55.6643 135.844 55.5384 134.986C55.2596 133.088 56.2827 131.845 57.2178 131.564C58.2668 131.285 58.672 131.801 59.0692 132.996ZM99.3467 141.989C98.8176 141.986 97.5972 142.544 97.5855 144.361C97.5763 145.786 98.0902 146.464 98.3258 146.755C100.012 146.253 100.489 144.89 100.497 143.753C100.503 142.792 99.9814 141.992 99.3467 141.989ZM123.245 141.969C121.036 141.956 121.188 145.473 121.534 146.329C123.163 146.056 124.215 145.093 124.512 144.245C124.809 143.391 124.468 141.976 123.245 141.969ZM90.5641 133.2C89.4051 133.261 88.8474 136.815 89.0597 140.556C89.1948 142.997 89.5643 143.375 89.9113 143.354C90.5521 143.321 92.117 138.971 91.918 135.454C91.827 133.866 91.4381 133.146 90.5641 133.2ZM80.6883 130.519C81.6775 130.525 82.4054 131.149 82.4814 132.061C82.5896 133.37 81.6503 134.783 80.3753 134.776C79.2639 134.769 78.7036 133.994 78.639 133.058C78.5378 131.636 79.585 130.512 80.6883 130.519ZM92.2307 108.45C93.5649 108.888 95.0875 110.107 95.4609 110.733C95.989 110.546 96.6092 110.451 97.3235 110.45C98.3171 110.449 99.4357 110.636 100.771 111.043C100.833 110.634 100.895 110.133 101.516 110.133C102.448 110.132 102.2 111.166 102.511 111.757C102.667 112.07 103.445 112.257 103.446 112.883C103.446 113.479 102.946 113.699 102.637 113.699C102.512 113.699 102.357 113.668 102.263 113.637C101.644 113.857 101.617 118.36 99.0077 118.363C97.0823 118.365 95.3113 116.771 94.5321 114.771C94.3138 114.177 93.849 113.801 93.4133 113.801C92.9174 113.802 92.6381 113.896 92.05 114.555C90.3748 116.399 87.5805 117.997 84.1338 118C83.0769 118.001 82.2391 117.908 82.0215 117.909C81.8967 117.909 81.8967 117.939 81.8967 117.97C81.8967 118.19 82.9532 119.035 85.2518 119.033C90.717 119.028 92.0511 115.928 92.9195 115.927C93.0439 115.927 93.4151 115.927 93.6331 116.428C94.909 119.427 97.6898 120.113 99.429 120.112C100.919 120.11 100.841 119.986 101.308 119.986C101.774 119.985 101.805 120.266 101.805 120.454C101.806 121.143 100.283 121.991 97.5835 121.993C95.999 121.995 95.0353 121.149 94.7547 120.21C93.204 121.214 90.8447 122.123 88.5146 122.126C82.1498 122.132 80.532 119.346 78.5442 118.443C77.0205 117.756 74.6937 119.104 71.4294 115.446C71.8647 115.54 72.4557 115.57 72.9214 115.57C75.7762 115.567 77.2968 114.16 77.2946 111.905C77.2946 111.623 77.2629 111.314 77.232 111.033C78.1026 111.376 80.0911 112.874 80.56 115.532C80.6223 115.845 81.8949 116.125 82.7017 116.125C83.8208 116.124 85.2489 115.652 85.4643 113.808C89.1908 113.492 91.7051 111.269 92.2307 108.45ZM114.687 111.024C115.406 111.024 116.403 111.697 116.405 113.349C116.408 116.256 112.05 119.841 106.217 119.846C104.415 119.848 103.447 118.627 103.446 117.402C103.445 115.658 104.41 114.064 105.15 113.206C105.492 112.806 105.836 112.5 106.148 112.499C106.397 112.499 107.147 113.019 108.831 113.018C111.982 113.015 113.877 111.638 114.687 111.024ZM112.818 113.72C112.638 113.72 111.578 114.671 109.114 114.674L108.708 114.674C108.739 114.949 108.771 115.133 108.771 115.379C108.771 116.111 108.585 116.877 108.337 117.61L111.736 116.629C112.851 115.924 113.162 115.037 113.162 114.363C113.161 113.811 112.974 113.72 112.818 113.72ZM98.2569 112.607C97.5748 112.607 97.0155 113.172 97.0162 113.861C97.0166 114.55 97.577 115.112 98.2591 115.111C98.9425 115.111 99.5016 114.548 99.5009 113.859C99.5002 113.169 98.9405 112.606 98.2569 112.607ZM69.2612 100.852C73.0702 100.849 75.9991 104.06 76.0032 108.638C76.0054 110.702 74.8752 113.765 70.2793 113.768C64.8333 113.773 61.5221 109.197 61.5195 106.227C61.517 103.738 63.1854 102.163 64.2233 101.918C63.1266 106.347 65.5848 110.711 70.6234 110.707C73.1427 110.704 74.3676 109.459 74.3654 107.308C74.3632 104.911 72.6935 102.519 69.891 102.521C68.4746 102.522 67.4988 103.312 67.4995 104.401C67.5012 106.222 69.0466 107.374 70.6519 107.372C71.7212 107.371 72.4145 106.946 72.4137 106.248C72.4134 106.127 72.3816 105.975 72.3188 105.884C72.1924 105.945 71.9407 106.005 71.6257 106.005C70.3354 106.006 69.2964 105.279 69.2957 104.552C69.2953 103.975 69.7032 103.613 70.2695 103.613C72.1588 103.611 73.4513 105.488 73.4527 106.854C73.4538 108.246 72.4167 109.461 70.6537 109.462C66.9072 109.465 65.3303 106.466 65.3285 104.463C65.3263 102.312 67.1821 100.854 69.2612 100.852ZM89.2566 103.132C89.8376 103.131 90.1441 103.623 90.2054 104.141C90.4179 103.942 90.6009 103.855 90.8768 103.855C91.4885 103.854 91.856 104.314 91.8567 104.807C91.8567 105.124 91.6737 105.415 91.429 105.588C91.7966 105.762 92.0111 106.023 92.0114 106.399C92.0118 106.862 91.645 107.21 91.1554 107.211C90.6968 107.211 90.4207 106.689 89.9328 106.689C89.6579 106.689 89.3514 106.807 89.2293 106.98C89.4138 107.385 89.5057 107.788 89.5061 108.164C89.5079 110.422 86.4826 112.246 83.3343 112.249C80.1862 112.251 79.0533 110.402 79.0524 109.649C79.0524 109.476 79.1744 109.388 79.3887 109.388C79.9084 109.388 80.0312 109.562 81.4361 109.56C84.7991 109.558 83.6032 105.248 86.7509 105.245C87.1795 105.244 88.1284 105.533 88.4635 106.112C88.7076 105.823 88.8001 105.533 88.7998 105.272C88.7994 104.781 88.4617 104.403 88.4613 103.944C88.461 103.451 88.7976 103.132 89.2566 103.132ZM110.136 107.69C112.008 107.689 113.374 108.206 113.375 109.094L113.376 109.799C113.376 110.137 113.318 110.477 113.065 110.688C112.261 111.363 111.045 111.701 109.704 111.703C108.02 111.704 106.646 111.123 106.645 110.54L106.644 109.131C106.644 108.701 107.859 107.692 110.136 107.69ZM120.255 97.0537C122.761 97.0514 125.549 98.7219 125.552 102.49C125.556 106.502 119.749 111.488 118.883 111.489C118.17 111.489 117.395 110.489 117.395 109.82C117.395 109.608 117.488 109.333 118.107 109.091C121.07 107.931 122.769 105.257 122.767 103.889C122.767 103.584 122.613 103.284 122.21 103.284C121.686 103.284 119.437 108.329 116.93 108.331C115.195 108.332 113.43 106.787 113.429 106.056C113.428 104.84 118.441 102.587 118.439 100.884C118.439 100.245 118.13 100.216 117.882 100.216C117.232 100.216 113.644 104.93 111.329 104.932C110.772 104.933 110.307 103.9 110.307 103.112C110.306 102.687 110.583 102.382 111.575 102.168C116.892 100.977 115.712 97.0576 120.255 97.0537ZM101.19 90.9756C102.554 90.9745 103.705 91.4436 103.705 92.0412C103.706 92.8598 101.687 92.3584 101.532 93.3318C102.962 93.5193 103.305 94.0224 103.305 94.4321C103.306 95.1239 102.684 95.3432 102.093 95.3437C101.659 95.3441 101.162 95.2502 100.634 95.251C99.9508 95.2513 99.2689 95.4094 98.7107 96.0704C99.114 96.1327 99.7046 96.4152 99.7053 97.0449C99.7068 98.8688 94.7081 97.3624 94.7125 102.049C94.7145 104.532 97.2623 107.235 101.11 107.231C103.098 107.23 104.371 106.568 104.37 105.812C104.37 105.215 103.315 105.625 103.315 105.121C103.315 104.901 103.686 104.49 103.685 104.144C103.685 103.991 103.561 103.707 103.313 103.708C102.753 103.708 101.698 104.619 99.556 104.621C97.8798 104.622 96.2344 103.652 96.2333 102.33C96.2329 102.047 96.3572 101.889 96.5429 101.889C96.7298 101.889 96.978 102.015 97.1951 102.015C97.3821 102.015 97.4126 101.888 97.4123 101.542C97.4119 101.196 97.4112 100.22 97.9996 100.22C98.5898 100.219 99.7098 102.421 103.995 102.417C105.417 102.416 108.181 102.131 109.205 101.185C109.177 104.644 106.51 109.205 100.926 109.21C95.1229 109.215 92.0154 104.501 92.0114 100.162C92.0073 95.3525 95.8808 90.9806 101.19 90.9756ZM72.1856 97.0537C73.6967 97.0522 74.8074 97.4861 75.8255 99.035C76.7529 100.428 76.9093 102.753 77.4018 103.187C77.6491 103.404 78.0503 103.466 78.3281 103.465C78.6368 103.465 78.9143 103.433 79.129 103.433C81.3499 103.431 82.8628 105.939 82.8638 107.056C82.8649 108.08 81.9718 108.449 80.8623 108.45C79.5352 108.451 78.0235 107.681 77.2511 106.813C76.6653 106.193 76.3558 104.952 76.1073 103.435C75.8593 101.853 74.6247 100.521 72.1574 99.907C70.183 99.4115 69.9053 99.0403 69.9048 98.5126C69.9041 97.6437 71.1074 97.0546 72.1856 97.0537ZM79.223 104.577C78.885 104.577 78.4532 104.826 78.454 105.291C78.4543 105.85 79.842 106.842 80.7681 106.841C81.2291 106.84 81.3832 106.561 81.3832 106.343C81.3821 105.537 79.9947 104.577 79.223 104.577ZM61.1996 74.2609C61.6091 74.2606 61.7975 74.6639 61.7982 75.0667C61.7993 76.5534 59.8855 80.8305 59.8866 82.0376C59.8866 82.2239 59.9491 82.3785 60.1067 82.3785C60.8936 82.3778 62.4622 79.0317 62.9636 77.3582C63.246 76.4902 63.6234 76.0249 63.9698 76.0245C64.2841 76.0242 64.568 76.365 64.5687 77.0781C64.5702 78.7505 62.9999 82.6864 61.6192 85.3217C60.5521 87.3669 58.8883 90.3096 58.8897 91.952C58.8905 92.7881 59.0467 93.6546 60.2752 94.7078C58.262 94.5859 57.4438 94.4006 56.6882 92.8526C53.3292 99.4547 62.89 98.7953 59.6233 104.651C59.0243 103.601 54.3067 102.52 54.3008 96.386C54.2962 91.0894 59.01 87.9866 59.0082 85.7874C59.0078 85.3546 58.8516 84.9825 58.4421 84.642C57.4023 83.775 57.3699 83.0639 56.5538 83.0647C55.9553 83.0654 55.2326 84.4285 55.9888 85.6349C56.2415 86.0375 56.4616 86.2853 56.4619 86.6574C56.4627 87.5241 55.0802 89.8478 54.1071 89.8489C53.1312 89.8496 52.3756 87.4677 52.372 83.6242C52.369 80.217 53.1506 76.7783 54.1262 76.7772C54.4088 76.7772 54.5032 76.9627 54.5036 77.211C54.504 77.614 54.3793 78.4189 54.3804 79.7806C54.3815 81.2382 54.7279 81.3623 55.0114 81.3623C56.0796 81.3612 55.8531 74.9168 57.5831 74.9153C57.9923 74.915 58.1186 75.3183 58.1194 75.8137C58.1205 77.2699 57.3979 79.4081 57.399 80.5843C57.3998 81.1735 57.5575 81.3598 57.8406 81.3594C58.5965 81.3587 59.9103 74.2618 61.1996 74.2609ZM85.0906 90.026C85.3684 91.5951 86.0107 92.4107 87.3899 92.9233C90.1158 93.9164 90.4854 95.4252 90.4868 97.027C90.4897 99.7453 88.5629 103.128 83.6024 103.132C79.6204 103.135 76.7683 99.636 76.7655 96.6769C76.7648 95.8603 76.9787 94.9557 77.4996 94.9553C77.9595 94.955 78.1131 95.3159 78.4797 95.6781C79.8602 97.0367 81.3605 97.3965 83.5351 97.3946C85.4954 97.3928 86.9337 96.6067 86.933 95.7911C86.9321 94.4332 84.0827 94.406 84.081 92.3522C84.0806 91.8386 84.4167 90.9635 85.0906 90.026ZM121.216 98.3302C120.784 98.3306 120.32 98.6661 120.321 99.4873C120.321 100.396 121.034 100.974 121.436 101.155C121.653 101.277 121.994 101.398 122.331 101.398C123.23 101.397 123.942 101.153 123.941 100.423C123.94 99.4839 122.546 98.3286 121.216 98.3302ZM88.3122 97.1504C88.0665 97.1504 87.7933 97.6324 87.058 97.9653C86.0077 98.4402 85.5886 98.3594 85.5897 99.4172C85.59 99.8095 85.498 100.321 85.498 100.592C85.4984 100.955 85.5605 101.167 85.9887 101.166C87.0916 101.165 88.8351 99.3232 88.8338 97.7523C88.8331 97.3288 88.5879 97.1501 88.3122 97.1504ZM100.791 97.0132C102.589 97.0116 103.805 98.1729 103.806 99.3691C103.807 100.183 103.217 100.876 102.345 100.877C101.539 100.878 100.98 100.217 100.979 99.4653C100.979 98.9307 101.196 98.4268 101.196 97.9555C101.196 97.6402 101.101 97.3251 100.791 97.0132ZM128.108 89.4561C129.651 89.4547 130.887 91.4559 130.889 93.7979C130.891 96.2913 129.721 99.0037 127.632 100.852C127.597 96.6951 122.506 98.0241 122.503 95.0056C122.502 93.7126 123.427 92.8484 124.539 92.8475C125.526 92.8468 126.297 93.1232 126.853 93.6787C126.297 93.1546 126.019 92.4154 126.018 91.7077C126.017 90.5357 126.757 89.4575 128.108 89.4561ZM63.5838 92.5265C64.7791 92.3216 65.6548 93.1519 65.9355 94.1069C66.184 93.8835 66.5583 93.7243 66.9627 93.6728C68.0071 93.5399 69.0097 94.3914 69.1345 95.5389C69.229 96.6558 68.4738 97.58 67.354 97.7983C67.2394 97.8208 67.0885 97.8368 67.0885 97.8368C67.1815 98.0599 67.242 98.2532 67.2754 98.5704C67.4005 99.7508 66.6236 100.677 65.4806 100.831C64.3551 100.983 63.521 100.327 63.2718 99.3081C63.023 99.468 62.6491 99.5825 62.2472 99.6282C61.1302 99.7562 60.141 98.9324 60.01 97.8429C59.8611 96.6058 60.8427 95.6673 61.7482 95.5277C61.8737 95.5093 62.0572 95.4807 62.0572 95.4807C61.9632 95.2592 61.9189 95.0384 61.901 94.8445C61.792 93.6518 62.5049 92.7111 63.5838 92.5265ZM111.063 94.9914C113.387 95.1463 114.879 96.5593 114.88 98.2251C114.881 99.4528 114.012 100.489 112.739 100.49C111.566 100.491 110.788 99.645 110.787 98.6063C110.786 97.6941 111.375 96.8772 111.374 95.996C111.374 95.6816 111.281 95.3349 111.063 94.9914ZM104.911 91.6632C108.173 92.2893 109.944 94.7718 109.946 97.0983C109.948 98.7029 108.957 100.179 107.217 100.18C105.633 100.181 104.489 99.0844 104.487 97.3221C104.486 96.002 105.502 94.6182 105.501 93.2653C105.501 92.7316 105.346 92.1974 104.911 91.6632ZM64.6126 95.51L64.499 95.5182C63.8504 95.5963 63.388 96.2002 63.464 96.8661C63.5384 97.5317 64.1266 98.0074 64.7744 97.9295C65.4223 97.8511 65.885 97.2502 65.8087 96.5839C65.7334 95.9168 65.1472 95.4396 64.499 95.5182L64.6126 95.51ZM106.932 94.1138C106.682 94.114 106.777 94.4919 106.714 94.9005C106.683 95.2145 106.529 95.5912 106.529 95.8437C106.53 96.2838 106.841 96.6295 107.276 96.6292C107.772 96.6288 108.084 96.1881 108.083 95.6845C108.082 95.0257 107.491 94.1135 106.932 94.1138ZM113.104 80.6824C113.573 80.6816 114.233 82.2148 114.547 82.2145C115.047 82.2141 115.735 80.9618 116.206 80.9616C116.361 80.9612 116.424 81.0554 116.425 81.3372C116.426 82.494 115.832 83.809 115.833 84.9377C115.834 85.7186 116.086 86.6264 116.869 86.6256C117.526 86.6253 118.09 85.625 118.089 84.5284C118.088 83.2761 117.867 82.3059 117.867 81.8042C117.867 81.5861 117.961 81.4927 118.086 81.4927C118.556 81.5235 118.996 82.8059 119.497 82.8056C120.061 82.8052 120.9 81.7701 121.244 81.7697C121.338 81.7697 121.369 81.8951 121.369 81.9259C121.369 82.3966 120.65 83.4312 120.65 83.8371C120.651 84.1807 122.468 84.2417 122.468 84.5552C122.469 85.0251 120.564 85.027 119.656 85.4347C118.78 85.8104 118.247 86.2805 118.247 86.9071C118.248 87.5332 118.875 87.6568 119.752 87.656C121.845 87.6542 123.314 86.5267 123.783 86.5264C123.878 86.5264 123.939 86.5884 123.94 86.6828C123.94 86.9959 122.877 88.0293 122.877 88.4986C122.878 89.0306 124.821 89.6531 124.79 89.967C124.758 90.061 124.632 90.0922 124.413 90.0922C124.068 90.0926 123.537 89.9997 123.129 90.0001C122.878 90.0004 122.659 90.0313 122.564 90.1563C122.348 90.4079 122.629 92.066 122.193 92.0663C121.785 92.0667 120.717 88.3755 118.312 88.3773C117.967 88.3776 117.717 88.6592 117.718 89.1294C117.719 90.38 118.942 91.8187 120.102 92.5063C120.627 92.8509 121.505 93.1945 121.505 93.3827C121.506 93.7568 119.507 93.4157 119.507 94.0408C119.508 94.6049 119.759 95.451 119.76 95.9501C119.76 96.1069 119.729 96.2939 119.541 96.2939C119.165 96.2943 118.254 94.5751 117.816 94.5755C117.441 94.5759 116.627 95.6079 116.281 95.6083C116.188 95.6083 116.126 95.5148 116.125 95.4223C116.124 94.702 117.282 93.0733 117.281 91.477C117.28 90.7251 117.185 89.098 116.275 89.0991C115.524 89.0998 114.679 90.289 114.304 91.4799C114.086 92.168 114.245 94.8284 113.743 94.8292C113.273 94.8295 113.396 93.0456 112.769 93.0458C112.307 93.0465 111.306 93.8913 110.961 93.8917C110.898 93.8917 110.835 93.8605 110.835 93.7982C110.835 93.4236 111.742 92.201 111.742 91.9508C111.742 91.4821 109.674 91.4219 109.674 91.0458C109.673 90.8259 110.488 90.6693 111.239 90.5426C112.831 90.2592 115.179 89.0998 115.178 87.4737C115.176 85.6584 113.42 84.8764 112.268 84.1258C111.672 83.7502 111.014 83.4396 111.013 83.1894C111.013 82.9381 111.766 82.9373 112.078 82.9373C112.548 82.9366 113.012 82.9048 113.012 82.5294C113.011 82.2468 112.947 81.6852 112.947 81.2468C112.947 80.9331 112.978 80.6824 113.104 80.6824ZM81.4941 75.7804C83.1181 76.6544 84.3134 78.1343 84.3145 79.3405C84.3163 81.4239 82.1133 82.3912 82.1144 83.6907C82.1158 85.1998 84.4734 85.4401 84.4752 87.3116C84.4767 88.8496 82.2421 90.6335 82.2439 92.6259C82.2453 94.1653 83.3495 95.4313 85.0341 95.6415C84.4829 95.7631 83.9933 95.8542 83.4726 95.8549C80.3786 95.8573 77.1919 93.3558 77.1892 90.3655C77.1878 88.8862 77.8306 87.5892 78.8083 86.6524C79.6673 87.3759 80.5245 87.8575 81.0764 87.8571C81.5667 87.8564 81.7808 87.6161 81.7805 87.2539C81.7796 86.1348 77.2758 85.1141 77.2737 82.7283C77.2719 80.7959 81.9275 79.7661 81.9255 77.3804C81.9251 76.9876 81.7705 76.295 81.4941 75.7804ZM69.7084 75.7804C69.0613 76.8969 68.9086 78.3541 68.9093 79.2547C68.9141 84.5266 75.238 89.4524 75.2409 92.708C75.242 94.0415 74.2881 95.5324 72.532 95.5342C70.9894 95.5356 70.157 94.294 70.1563 93.2719C70.1556 92.4645 70.711 91.8433 70.8942 91.8429C70.9862 91.8429 71.0169 91.9051 71.0173 92.1219C71.0177 92.5567 71.3579 93.1153 72.0675 93.1149C72.7151 93.1146 73.1451 92.648 73.1444 92.0588C73.1424 89.4852 67.929 84.993 67.9234 78.821C67.6462 79.5037 67.3074 80.3715 67.3089 81.6757C67.3114 84.6525 69.4722 87.7527 69.4747 90.542C69.4758 91.6905 68.5838 92.714 67.4733 92.7151C66.179 92.7158 65.7154 91.6941 65.7147 91.0424C65.7144 90.6074 65.8993 90.2044 66.0223 90.2044C66.1768 90.204 66.1154 90.8559 66.8252 90.8552C67.5637 90.8545 67.8411 90.3261 67.8404 89.3662C67.838 86.7929 66.3571 84.9632 66.3551 82.2954C66.3544 81.8933 66.3541 81.4587 66.4457 81.0556C65.6444 82.0188 65.5531 83.3828 65.5542 84.5921L65.5569 87.7564C65.5591 89.8935 64.4817 90.8574 63.1859 90.8588C62.3546 90.8595 61.5206 90.2082 61.5195 89.0611C61.5192 88.9063 61.6119 88.3484 61.7972 88.3481C62.044 88.3477 62.2297 88.9982 62.9388 88.9974C64.2953 88.9965 64.3864 87.6643 64.3843 84.9962C64.3816 81.9267 65.6414 78.419 69.7084 75.7804ZM100.894 75.7804C101.241 78.4391 104.811 77.0904 104.815 80.3135C104.815 80.7837 104.69 81.4733 104.69 82.0664C104.691 82.7565 104.755 83.3511 105.281 83.3503C105.812 83.3501 105.938 82.9747 105.938 82.4729C105.937 81.9712 105.811 81.3465 105.81 81.0023C105.809 79.9057 106.593 79.6558 107.063 79.6558C108.254 79.6545 109.163 80.874 110.949 80.8724C110.543 82.8758 106.407 82.3468 106.409 84.5388C106.41 85.6354 107.507 85.8827 108.228 85.8827C108.886 85.882 109.105 85.7874 109.105 85.2255C109.105 84.9118 109.041 84.5678 109.041 84.3481C109.04 84.223 109.135 84.0971 109.292 84.0971C109.982 84.0964 113.36 86.6605 113.36 87.444C113.361 88.1625 109.797 88.8857 108.763 88.8864C108.45 88.8868 108.387 88.6674 108.387 88.5432C108.387 88.3242 108.918 87.6657 108.918 87.2909C108.918 87.0093 108.448 86.8218 107.194 86.8227C106.599 86.8235 106.16 86.8863 106.161 87.3575C106.162 88.2003 107.542 89.2323 107.543 90.0141C107.543 90.6404 107.168 91.0166 106.164 91.0175C105.318 91.0182 104.04 90.3612 104.039 89.2664C104.038 88.3904 104.94 87.5139 104.94 86.9815C104.94 86.8246 104.82 86.5745 104.444 86.5747C103.285 86.5758 102.974 89.642 98.8721 89.99C99.5295 89.3962 100.092 88.7377 100.091 87.3934C100.09 86.7357 99.9341 86.2028 99.9334 85.4841C99.9323 84.5448 100.369 84.0739 100.995 84.0732C102.153 84.0721 102.718 85.6993 103.472 85.6985C103.88 85.6982 104.317 85.3237 104.317 84.76C104.314 82.3803 99.7427 82.7291 99.7398 79.3802C99.7387 78.4721 100.049 77.3456 100.894 75.7804ZM113.416 63.6243C113.57 63.6243 114.217 64.435 116.306 64.4328C117.382 64.4321 118.365 64.1502 119.933 64.1487C123.611 64.1454 125.243 66.7327 127.521 70.0333C128.897 70.904 132.187 72.3047 132.191 76.2638C132.194 79.7554 128.538 81.692 127.657 85.433C129.064 85.277 129.892 82.7186 131.336 82.7172C132.074 82.7164 132.412 83.3094 132.413 84.2453C132.414 85.6162 131.647 87.6751 130.173 88.9542C130.204 88.8288 130.204 88.6732 130.204 88.4854C130.203 87.6133 129.864 86.3686 128.88 86.3689C127.35 86.3704 126.86 88.0536 126.001 89.4561C125.107 86.2786 123.906 83.4101 121.755 81.6665C119.579 79.8921 115.829 80.8609 115.826 77.6196C115.825 76.7455 116.378 75.4989 116.376 74.5012C116.376 74.1586 116.315 73.8465 116.129 73.5969C119.081 74.7179 118.038 76.7122 119.854 78.7681C120.985 80.0777 124.119 81.3217 125.937 86.7125C125.968 86.5571 125.998 86.153 125.997 85.8718C125.993 81.2576 119.974 76.7422 119.451 74.8716C122.945 75.2741 123.561 76.1475 125.225 80.8206C125.563 81.7883 126.673 84.1882 126.674 85.3719C127.164 83.8131 127.778 82.7204 128.783 81.0365C127.776 80.5087 125.1 79.3877 125.099 77.5482C125.097 75.3971 127.738 73.7112 128.285 73.7112C128.531 73.7109 128.593 73.929 128.594 74.3349C128.594 75.4564 128.073 77.2648 128.074 78.2322C128.075 79.104 128.629 79.9461 129.12 79.9454C129.643 79.945 131.085 78.0733 131.084 76.2338C131.081 72.928 128.222 71.9342 127.337 71.935C126.508 71.9361 125.003 73.3086 121.47 73.3113C114.871 73.3175 113.358 66.6804 113.356 63.7803C113.356 63.6557 113.386 63.6243 113.416 63.6243ZM75.6464 67.4231C76.395 67.4224 77.797 68.7296 78.1726 70.0657C78.0168 70.036 77.8609 70.0053 77.7049 70.0057C76.7072 70.0064 76.1496 70.9789 75.34 72.6205C77.145 71.432 78.826 70.4598 80.7266 70.458C82.3454 70.4566 83.6247 71.4267 83.6261 72.9166C83.6265 73.5541 83.3152 74.2541 82.9108 74.8606C82.66 73.4938 81.5071 72.8884 79.514 72.8902C78.3624 72.8913 76.9907 73.1035 75.9014 73.4999C79.4219 73.9839 79.9527 75.2288 79.9536 76.3537C79.9554 78.2685 77.9939 79.2116 76.6854 79.8518C76.8094 79.3041 76.9026 78.7255 76.9022 78.1193C76.9011 76.9634 76.4649 75.6576 74.6869 74.3836C74.4091 75.6291 73.4137 76.3904 73.4144 77.3615C73.4148 77.7269 73.6627 77.8479 73.8499 77.8479C73.8506 78.3952 73.6024 79.945 73.6027 80.341C73.6034 81.1601 73.791 81.3125 74.1962 81.403C74.4463 82.1024 74.4556 83.2746 74.6266 83.9034C74.7251 84.2615 75.0073 84.351 75.2259 84.3506C75.4755 84.9578 75.7888 85.8698 76.3814 86.2929C76.5045 86.3843 76.6603 86.5969 76.6607 86.7792C76.661 87.3267 75.8214 87.9359 75.2919 87.9366C75.1361 87.9366 74.8664 87.8427 74.6266 87.2817C74.4312 86.8214 72.9233 85.9025 72.8291 85.355C72.9226 85.2633 72.9847 85.0809 72.9847 84.8683C72.984 84.0179 71.613 83.046 71.6115 81.7099C71.7674 81.6486 71.9232 81.4052 71.9228 81.1312C71.9221 80.3724 71.1099 78.8828 71.1094 77.8814C71.4521 77.881 71.6393 77.85 71.6698 77.3633C71.731 76.3612 71.9479 74.8704 72.9122 74.0201C72.6943 73.9898 72.415 73.9595 72.0405 73.9598C70.1716 73.9612 67.2756 75.0273 66.1879 77.3987C66.1255 77.0337 66.0937 76.7006 66.0933 76.3969C66.0915 74.4209 67.3048 73.1122 68.2083 72.718C68.6751 72.5046 69.2355 72.4432 69.8592 72.4428C70.8544 72.4417 72.0396 72.654 73.2538 72.8656C72.1943 71.4981 70.574 70.497 69.2341 70.4984C68.6121 70.4988 68.113 70.7123 67.9579 71.2277C67.8953 70.9559 67.8637 70.4993 67.8635 70.1949C67.8624 68.7075 68.3602 67.8552 69.6678 67.8542C71.5986 67.8524 73.2513 70.1003 74.2498 72.1953L74.2498 72.1938L74.2497 71.9259C74.2514 69.0061 74.3407 67.5136 75.5348 67.4271L75.6464 67.4231ZM112.782 77.3081C113.467 77.3074 113.997 77.8147 113.997 78.4118C113.998 79.0993 113.469 79.5785 112.784 79.5792C112.169 79.5796 111.608 79.1012 111.608 78.4139C111.607 77.8168 112.167 77.3084 112.782 77.3081ZM108.868 75.1896C110.049 75.1885 111.015 76.1147 111.016 77.2492C111.017 78.3841 110.053 79.312 108.872 79.313C107.689 79.3141 106.724 78.3879 106.723 77.2527C106.722 76.1185 107.685 75.1906 108.868 75.1896ZM105.039 74.2373C105.723 74.2366 106.285 74.7732 106.285 75.431C106.285 76.0891 105.726 76.6258 105.041 76.6262C104.364 76.6269 103.803 76.091 103.802 75.4331C103.802 74.7754 104.362 74.238 105.039 74.2373ZM112.655 73.304C113.463 73.3033 114.117 73.9305 114.118 74.7061C114.119 75.4842 113.466 76.1122 112.657 76.1133C111.855 76.114 111.2 75.4864 111.2 74.7087C111.199 73.9327 111.852 73.3047 112.655 73.304ZM51.6097 72.3351C52.5766 73.7496 53.4769 74.1798 54.6345 74.1789C55.502 74.1782 56.4674 73.9932 57.7216 73.7146C56.0833 75.0699 54.7002 75.7797 53.6717 75.7804C52.353 75.7815 51.6119 74.6734 51.6097 72.3351ZM101.404 71.7301C102.367 71.729 103.177 72.5061 103.178 73.4312C103.179 74.3587 102.37 75.1347 101.407 75.1357C100.443 75.1364 99.6351 74.3619 99.6344 73.4343C99.6333 72.5092 100.439 71.7308 101.404 71.7301ZM109.113 71.843C109.797 71.8423 110.357 72.3797 110.358 73.0367C110.358 73.6944 109.799 74.2333 109.115 74.234C108.43 74.2343 107.871 73.6967 107.87 73.0388C107.869 72.3822 108.428 71.8437 109.113 71.843ZM60.6137 69.1563C60.4846 69.5262 60.389 69.9259 60.3893 70.573C60.3905 71.4958 60.7131 72.4196 61.6138 73.249C61.3562 73.4344 60.9397 73.5574 60.3603 73.5581C59.233 73.5592 58.3331 72.8511 58.3321 71.7435C58.3306 70.205 59.8724 69.3414 60.6137 69.1563ZM105.439 69.6954C106.497 69.6947 107.339 70.5001 107.34 71.5156C107.341 72.5327 106.5 73.3388 105.443 73.3395C104.392 73.3406 103.551 72.5358 103.55 71.5189C103.549 70.5036 104.388 69.6964 105.439 69.6954ZM63.2803 66.5999C64.8901 67.0592 66.8534 68.5053 66.8556 70.5674C66.8567 71.8902 66.1179 73.1835 64.5416 73.1848C62.9014 73.1862 61.8377 71.8024 61.8362 70.1406C61.8345 68.7562 62.5735 67.4004 63.2803 66.5999ZM52.7336 69.5942C53.5056 70.6092 54.7926 70.9145 55.9823 70.9134C56.3684 70.9131 56.7868 70.8818 57.1394 70.8208C56.3053 71.8378 55.3709 72.3008 54.5687 72.3015C53.5071 72.3026 52.7037 71.5021 52.7022 70.0555C52.7022 69.9022 52.7019 69.749 52.7336 69.5942ZM112.401 69.6893C113.117 69.6886 113.71 70.2555 113.71 70.9414C113.71 71.6299 113.12 72.1986 112.404 72.1989C111.696 72.1996 111.103 71.6322 111.103 70.9438C111.102 70.2576 111.694 69.69 112.401 69.6893ZM120.481 65.8319C120.358 65.8319 120.211 65.9253 120.211 66.3001C120.211 66.6429 120.274 66.8616 120.274 67.2655C120.275 67.6712 120.182 67.9519 119.813 67.9522C118.983 67.953 118.244 65.99 117.537 65.9904C117.383 65.9907 117.23 66.0845 117.23 66.2401C117.231 66.6146 117.845 67.2989 117.846 67.6423C117.847 68.391 115.849 67.9868 115.849 68.6108C115.85 68.8918 116.125 68.9838 116.494 68.9836C117.14 68.9829 118.154 68.7029 118.676 68.7026C118.984 68.7022 119.445 68.764 119.446 69.1681C119.446 69.6047 118.34 70.1662 118.341 70.5721C118.341 70.7591 118.525 70.8507 118.678 70.8507C119.509 70.8502 120.976 69.3851 122.02 69.384C122.204 69.384 122.664 69.4769 122.664 69.7577C122.665 70.1622 121.622 70.8794 121.622 71.4716C121.623 71.628 121.716 71.815 121.899 71.815C122.45 71.8146 123.186 70.3496 124.232 70.3485C124.631 70.3481 125.216 70.5032 125.524 70.5028C125.769 70.5028 125.861 70.347 125.861 70.2529C125.861 69.5985 124.231 69.5382 124.076 67.6988C124.045 67.4186 123.952 66.9205 123.614 66.9209C123.061 66.9216 123.492 68.6355 122.878 68.6359C121.466 68.6373 121.003 65.8312 120.481 65.8319ZM101.928 68.0253C102.613 68.0246 103.173 68.5626 103.174 69.219C103.175 69.876 102.616 70.4149 101.93 70.4156C101.248 70.4163 100.687 69.8781 100.686 69.2215C100.686 68.5648 101.245 68.0256 101.928 68.0253ZM108.983 66.5258C110.072 66.5247 110.975 67.3894 110.976 68.4363C110.977 69.4816 110.076 70.3482 108.987 70.3492C107.898 70.3503 106.996 69.4845 106.994 68.4401C106.994 67.3927 107.895 66.5268 108.983 66.5258ZM59.1576 61.6159C59.4146 61.6156 59.6714 61.6262 59.8655 61.6459C60.4452 61.7071 60.9065 61.7163 61.0556 61.8606C61.3172 62.1108 61.161 62.5858 61.5718 63.1216C61.9823 63.6599 62.4741 63.583 62.4749 64.1685C62.4752 64.6307 61.5757 67.3708 59.2606 68.4818C58.1682 69.0041 57.2989 69.2213 56.5599 69.2216C55.3043 69.2227 54.4361 68.7013 53.665 68.702C53.5361 68.702 53.3756 68.7638 53.1173 68.7641C52.8296 68.7641 52.5074 68.4567 52.507 68.1794C52.507 68.0559 52.5432 67.9348 52.6032 67.8402C53.0515 67.1314 52.6381 64.3112 55.427 62.6049C56.8388 61.7428 58.0968 61.6166 59.1576 61.6159ZM130.889 59.1777C131.734 59.4753 131.647 60.7564 131.649 62.3932C131.651 65.249 131.364 68.8745 130.606 68.941C129.47 69.0319 125.279 65.2253 124.897 62.3991C126.034 62.5169 129.551 61.9486 130.889 59.1777ZM104.877 66.4995C105.53 66.4988 106.059 67.0061 106.06 67.6326C106.061 68.2612 105.532 68.7702 104.879 68.7706C104.232 68.7713 103.703 68.2631 103.703 67.6347C103.702 67.0085 104.23 66.5002 104.877 66.4995ZM73.9649 56.0267C76.3448 56.0247 77.6103 58.1679 77.6125 60.5577C77.6129 60.894 77.5823 61.2616 77.5226 61.5986C78.5446 59.8823 79.9598 58.5646 81.495 58.5631C83.482 58.561 84.3863 60.3062 84.3884 62.267C84.3891 63.1234 84.1506 64.3813 83.7589 64.3817C83.3669 64.382 83.4269 63.6769 83.3655 63.0327C83.3052 62.2062 83.1541 62.0224 82.8825 62.0228C82.3706 62.0232 82.0419 63.2486 82.0426 64.3829C82.0433 65.0863 82.1643 65.8833 82.7052 65.8829C83.0063 65.8825 83.2777 65.7289 83.4583 65.5451C83.3393 66.9538 82.3153 68.1814 80.8711 68.1828C78.2215 68.1853 77.2247 65.0302 76.9217 63.1922C75.3278 64.9091 73.8545 66.1674 71.2039 66.1697C68.7361 66.1715 67.6193 64.3349 67.6179 62.5892C67.6176 62.0673 67.7972 60.7204 68.4302 60.7197C69.1818 60.719 68.5226 63.2304 69.9976 63.2289C70.3596 63.2286 71.0204 62.921 71.3812 61.9112C71.5915 61.2976 71.7118 60.6555 71.7114 60.1033C71.7107 59.2753 71.529 58.7564 70.9284 58.7568C70.4151 58.7575 69.7827 59.1549 69.5724 59.3696C70.2941 57.1628 72.039 56.0285 73.9649 56.0267ZM55.8145 63.9894C55.4611 63.9897 54.9796 64.7606 54.9804 65.375C54.9815 66.5152 56.1405 67.7757 57.201 67.775C57.7803 67.7743 58.3922 67.4652 58.3918 67.2495C58.3918 67.1881 58.3276 67.1572 58.2307 67.0962C57.2645 66.6673 56.2346 65.8054 56.0397 64.2979C56.0075 64.0818 55.943 63.989 55.8145 63.9894ZM81.3154 60.5541C80.6831 60.5548 79.6327 63.5878 79.6339 65.2417C79.6346 65.8858 79.7858 66.1617 79.9668 66.1613C80.7184 66.1606 81.5593 63.2184 81.5575 61.3805C81.5572 60.9817 81.4964 60.5541 81.3154 60.5541ZM108.212 58.5499C108.571 59.0461 108.781 60.0745 108.782 60.5417C108.785 63.9343 106.399 65.2432 104.199 65.2452C102.766 65.2467 102.049 64.7492 101.87 64.7492C101.305 64.7499 101.336 65.9337 100.948 65.903C100.262 65.7792 99.636 64.192 99.6344 62.5115C99.6337 61.5142 99.8712 60.4562 100.405 59.6774C101.182 60.4551 101.866 60.7963 102.702 60.7956C103.031 60.7952 103.419 60.7021 103.629 60.7018C103.896 60.7018 104.075 60.8248 104.075 61.0426C104.075 61.3855 103.778 61.9465 103.42 62.2587C103.778 62.414 104.166 62.4765 104.584 62.4761C106.277 62.4743 108.215 61.3501 108.212 58.5499ZM110.505 63.6243C111.158 63.6239 111.689 64.1325 111.689 64.7602C111.69 65.3864 111.16 65.8954 110.508 65.8958C109.854 65.8965 109.325 65.3885 109.324 64.7623C109.324 64.1344 109.852 63.625 110.505 63.6243ZM59.0297 62.6637C58.5482 62.6641 58.1947 62.7258 58.195 63.3095C58.1958 64.2337 59.0974 65.8646 60.2239 65.8639C60.7388 65.8632 60.9959 65.3077 60.9956 64.8784C60.9956 64.6626 60.3805 64.306 60.1579 64.0163C59.8028 63.5545 59.8025 62.9398 59.5131 62.7869C59.3514 62.6941 59.2551 62.6634 59.0297 62.6637ZM64.7247 62.2581C65.4312 62.2574 66.0114 62.8114 66.0121 63.4876C66.0125 64.1653 65.4335 64.7208 64.7269 64.7211C64.0191 64.7219 63.4388 64.1678 63.4382 63.4901C63.4374 62.814 64.0165 62.2585 64.7247 62.2581ZM74.479 57.4656C73.5457 57.4667 72.2562 62.8285 72.2573 64.0238C72.2573 64.2388 72.3175 64.484 72.5892 64.4837C73.6122 64.483 74.7799 58.8452 74.7788 57.8946C74.7788 57.6494 74.69 57.4656 74.479 57.4656ZM78.9375 61.5363C78.6362 61.5366 78.3067 61.9049 77.8253 62.7329C77.8868 63.8351 78.0685 64.3254 78.3687 64.3251C78.6989 64.3247 79.1803 63.2511 79.1792 62.1798C79.1785 61.6583 79.0579 61.5363 78.9375 61.5363ZM76.0464 59.6702C75.1419 59.6712 74.6937 62.123 74.6944 62.7667C74.6947 63.1321 74.8743 63.4392 75.0544 63.4392C75.3861 63.4388 75.8078 63.0705 76.5906 62.1819C76.6506 61.7838 76.6503 61.4155 76.6499 60.9554C76.6492 60.344 76.4077 59.6698 76.0464 59.6702ZM115.525 54.5072C116.577 54.5063 116.307 55.7777 117.269 55.777C118.019 55.7762 118.98 55.1072 119.552 55.1065C120.446 55.1058 121.74 58.0937 121.741 59.4923C121.742 61.114 119.437 62.1018 116.704 62.1048C112.715 62.1085 110.309 58.4233 110.307 56.038C110.307 55.8472 110.397 55.7836 110.487 55.7199C110.867 55.4494 112.559 55.8767 114.746 54.7289C115.015 54.5721 115.285 54.5072 115.525 54.5072ZM63.0477 59.488C63.7563 59.4876 64.3357 60.042 64.3364 60.7192C64.3372 61.3955 63.7586 61.951 63.0503 61.9514C62.3434 61.9517 61.7636 61.3977 61.7629 60.7216C61.7621 60.0438 62.3408 59.4887 63.0477 59.488ZM53.5247 56.573C53.4923 56.7581 53.4923 56.9114 53.4926 57.0968C53.4941 58.851 54.5248 60.1736 56.3912 60.6959C56.3912 60.6959 55.4585 61.3724 54.3007 61.3734C52.9196 61.3743 51.8237 60.3913 51.8222 59.0064C51.8211 58.052 52.335 57.0668 53.5247 56.573ZM129.254 54.5072C130.447 54.6554 130.915 55.4877 130.916 56.5004C130.918 58.6731 128.152 61.1453 125.128 61.1482C123.994 61.1493 123.207 60.7939 123.206 59.9595C123.206 59.602 123.497 58.9185 124.458 58.9174C127.109 58.915 129.547 57.0972 129.545 55.4594C129.545 54.9835 129.458 54.7753 129.254 54.5072ZM103.831 54.5072C105.734 54.5054 106.48 55.5622 106.749 55.5622C107.047 55.5619 107.345 55.2497 107.584 55.2493C107.912 55.249 107.912 55.7786 107.912 56.1532C107.914 57.3972 107.379 59.5462 106.037 60.3261C105.798 59.7968 105.32 59.2051 104.55 58.8334C104.342 58.7407 104.252 58.5539 104.252 58.3671C104.252 58.0239 104.549 57.5872 104.902 57.3997C104.663 56.9956 103.773 56.7799 103.357 56.7803C102.042 56.7817 101.15 57.7466 100.971 58.6191C100.852 58.3072 100.762 57.9341 100.761 57.5602C100.76 56.1911 101.653 54.5094 103.831 54.5072ZM57.3172 54.5072C59.5052 54.5054 60.2155 56.7523 60.2166 58.2289C60.2174 58.9074 60.0891 59.5212 59.9289 60.015C57.7089 60.0167 55.1657 59.0346 55.1634 56.6026C55.1625 55.4628 56.0638 54.5083 57.3172 54.5072ZM55.3808 39.312C56.919 39.3106 60.9075 39.709 60.9083 40.6089C60.909 41.6314 57.5482 42.658 57.549 43.6493C57.5501 44.8289 62.2609 44.1412 62.262 45.1662C62.2631 46.2196 58.843 48.5794 58.8434 49.3224C58.8438 49.4466 59.0008 49.508 59.1263 49.508C59.9417 49.5073 62.0762 47.9555 63.0498 47.9545C63.4255 47.9541 63.5517 48.2023 63.552 48.6372C63.5531 49.5044 63.0215 50.9622 63.0222 51.8601C63.0226 52.0775 63.0857 52.3257 63.336 52.3254C64.0268 52.3247 65.1244 49.3784 66.0968 49.3773C66.9765 49.3766 66.1953 53.8108 67.1067 53.8104C67.8905 53.8097 68.0441 49.7792 68.8614 49.7786C69.6452 49.7779 70.0246 52.0403 70.8419 52.0392C71.1852 52.0392 71.2168 51.6052 71.2165 50.8926L71.2154 49.8385C71.2146 49.1559 71.2459 48.6922 71.5911 48.6918C72.5342 48.6911 75.2036 51.7872 75.7695 51.7865C75.8955 51.7865 75.9266 51.6623 75.9266 51.5692C75.926 50.7335 74.1332 47.914 74.1318 46.4266C74.1314 45.9287 74.3202 45.5879 74.8228 45.5876C75.9209 45.5865 78.2458 46.8568 79.3122 46.8561C79.6585 46.8557 79.8785 46.7312 79.8782 46.3899C79.8771 45.119 76.0439 42.5486 76.0428 41.4936C76.0421 40.4708 80.3119 39.4133 83.2311 39.4107C83.6086 39.4104 84.3625 39.4096 84.3629 39.8119C84.3636 40.5861 80.7402 41.2519 79.8681 42.1607C79.7539 42.2796 79.6808 42.4123 79.6865 42.5455C79.7434 44.0024 84.8415 47.3765 84.8433 49.2372C84.8437 49.6405 84.4982 49.9507 83.9323 49.9511C82.2369 49.9525 78.6557 48.2822 77.4303 48.2833C77.0844 48.2836 76.992 48.3769 76.9923 48.6869C76.9934 49.8649 79.3185 53.5814 79.3198 55.2248C79.3201 55.6594 79.1641 56.0009 78.7258 56.0012C77.312 56.0027 74.1688 52.2849 73.0713 52.286C72.0658 52.2867 72.5083 55.4172 71.566 55.4182C70.8137 55.4186 70.1514 53.6212 69.3345 53.6219C68.5187 53.6226 67.9901 59.8241 66.7037 59.8255C65.1964 59.8266 65.7868 54.0903 64.7826 54.0912C63.9973 54.0915 62.9319 56.0459 61.7695 56.047C61.1421 56.0477 60.9537 55.5518 60.9529 54.8392C60.9522 53.9393 61.2336 52.7003 61.2329 51.893C61.2323 51.4584 61.2006 50.9636 60.7918 50.9643C59.6287 50.9651 55.394 54.0377 53.7611 54.0391C53.4172 54.0395 53.1651 53.8842 53.1649 53.5427C53.1635 52.0237 58.5272 47.462 58.5267 46.4092C58.5259 45.4466 52.3727 46.321 52.372 45.3905C52.3709 44.3366 56.7339 42.5039 56.7331 41.821C56.7324 41.1087 52.5248 40.8645 52.5241 40.0575C52.5237 39.53 53.5273 39.3138 55.3808 39.312ZM113.546 57.4976C113.425 57.4976 113.365 57.5615 113.365 57.6563C113.366 58.4841 114.809 59.7539 117.032 59.7517C118.354 59.7502 119.344 59.1127 119.344 58.7309C119.344 58.6057 119.163 58.5099 118.773 58.5103C118.382 58.511 117.602 58.4797 116.129 58.227C114.867 58.0049 113.906 57.4972 113.546 57.4976ZM127.455 54.5684C128.089 54.5681 128.293 54.9846 128.293 55.4C128.295 56.7114 125.71 57.7842 124.486 57.7853C124.078 57.7856 123.496 57.7863 123.174 57.1333C122.911 56.5973 122.998 55.733 122.503 55.3473C122.998 55.4948 123.522 55.4941 123.93 55.4937C125.242 55.4927 126.494 54.5691 127.455 54.5684ZM79.4107 50.4506C80.2907 50.4499 84.2814 53.5467 84.8481 54.3217C84.972 54.5077 85.035 54.7562 85.0354 55.0023C85.0361 55.9338 84.5676 57.019 83.9387 57.0197C83.1847 57.0201 79.2548 51.722 79.254 50.6373C79.254 50.5442 79.3155 50.4509 79.4107 50.4506ZM128.862 40.0718C129.893 40.0709 130.136 40.5298 131.651 40.5284C130.833 41.022 130.531 41.9137 130.531 42.3425C130.533 43.6338 131.352 44.5232 131.354 47.1658C131.359 52.0178 126.881 53.7429 121.399 53.7474C119.891 53.7488 118.284 53.6276 116.707 53.3845C116.466 53.3539 116.405 53.2926 116.405 53.1389C116.404 52.7389 118.556 52.5215 118.555 50.5565C118.554 49.7882 118.31 49.052 118.31 48.7758C118.31 48.6214 118.431 48.529 118.553 48.5286C119.007 48.5283 119.918 50.3096 121.608 50.3079C122.059 50.3075 123.181 50.1527 123.18 48.7396C123.178 46.5586 118.034 46.0098 118.034 45.5191C118.034 45.1199 120.906 44.4403 122.389 44.4086C120.115 41.4621 116.88 41.772 116.88 41.2502C116.879 40.9418 119.302 40.3247 121.539 40.3227C123.415 40.3209 125.172 40.7498 125.173 42.1937C125.175 42.9933 124.539 43.8239 124.54 45.052C124.541 45.7284 124.873 46.3109 125.754 46.3102C126.693 46.3093 126.904 45.2958 126.903 44.2192C126.902 43.3297 126.75 42.6528 126.75 42.2229C126.748 40.933 127.62 40.0729 128.862 40.0718ZM104.07 39.3512C104.447 39.3508 105.202 40.5716 105.697 40.5408C106.514 40.5401 108.052 39.5305 110.156 39.5284C114.577 39.5244 117.784 42.12 117.788 46.552C117.792 51.135 114.215 53.7373 110.42 53.7406C107.752 53.7424 106.147 52.1237 105.552 52.1244C105.149 52.1248 104.555 53.5314 104.179 53.5318C104.02 53.5318 103.958 53.5013 103.895 53.1338C103.8 52.4324 103.704 51.239 103.2 51.2394C102.76 51.2397 100.973 53.229 100.378 53.2293C100.253 53.2297 100.222 53.2297 100.222 53.0761C100.221 52.4657 101.787 50.3248 101.787 49.6836C101.786 49.0424 99.6525 49.4102 99.6521 48.8914C99.6514 48.2489 101.785 47.5739 101.784 46.7191C101.783 45.8628 99.7438 45.742 99.7431 45.0705C99.7427 44.7035 101.656 44.1817 101.655 43.6312C101.655 43.0825 99.7081 40.9441 99.7076 40.2401C99.7068 39.4772 102.626 41.5821 103.381 41.5814C103.711 41.5811 103.751 40.7629 103.756 40.3328L103.757 40.1758C103.756 39.6554 103.913 39.3512 104.07 39.3512ZM110.126 40.9655C108.21 40.9671 106.986 41.7314 106.987 42.4347C106.987 42.8635 107.364 42.9239 107.679 42.9235C108.306 42.9228 109.813 42.3411 110.096 42.3408C110.315 42.3406 110.441 42.401 110.441 42.5543C110.442 42.8911 109.782 43.6243 109.783 44.0527C109.783 44.6333 113.232 44.202 113.232 44.8147C113.233 45.3934 110.696 45.9468 110.696 46.3135C110.696 46.7115 112.739 48.0237 112.739 48.6963C112.739 48.8192 112.678 48.9417 112.458 48.942C111.798 48.9427 110.541 48.607 109.694 48.6077C109.506 48.6077 109.411 48.6991 109.411 48.8219C109.412 49.279 109.946 50.1949 109.947 50.7461C109.947 50.9297 109.853 50.9894 109.727 50.9894C109.224 50.9901 107.716 49.9532 107.026 49.9537C106.774 49.9541 106.586 50.1371 106.587 50.4119C106.587 50.9633 108.032 52.031 110.231 52.0289C111.926 52.0275 115.091 50.9254 115.087 46.524C115.084 43.0399 113.229 40.9626 110.126 40.9655ZM128.292 45.6334C128.294 48.3667 126.333 50.4569 122.787 51.0437C123.182 51.0736 123.546 51.0733 123.91 51.0729C128.054 51.0691 129.568 49.1641 129.567 47.5674C129.566 46.6757 129.08 45.8779 128.292 45.6334ZM55.2305 47.1256C55.6688 47.1252 56.1714 47.2164 56.1714 47.4642C56.1721 48.0852 53.7887 50.1633 52.9416 50.1641C52.6279 50.1644 52.5331 49.7931 52.5327 49.4523C52.5324 48.8336 52.8139 47.9637 53.1594 47.684C53.5657 47.312 54.5081 47.1263 55.2305 47.1256ZM105.229 43.2012C104.921 43.2015 104.861 44.9133 104.452 44.9137C103.981 44.914 103.384 44.7921 103.037 44.7926C102.943 44.7926 102.88 44.8233 102.88 44.8846C102.881 45.251 104.108 45.8913 104.108 46.2278C104.108 46.4417 102.851 47.2982 102.852 47.5427C102.852 47.6036 102.914 47.6341 103.071 47.6337C103.292 47.6337 104.015 47.6639 104.392 47.6635C104.55 47.6632 104.611 47.7859 104.611 47.9086L104.677 49.1299C104.677 49.2829 104.739 49.4057 104.833 49.4057C105.115 49.4054 105.673 48.1516 106.019 48.1513C106.301 48.1513 107.275 48.5795 107.527 48.579C107.589 48.579 107.621 48.548 107.621 48.4867C107.621 48.2115 106.96 47.3552 106.96 47.1431C106.96 46.868 108.75 46.897 108.75 46.5908C108.749 46.3461 106.99 46.0111 106.99 45.7361C106.99 45.4907 107.774 44.6663 107.774 44.4523C107.774 44.3904 107.711 44.3599 107.649 44.3603C107.333 44.3603 106.581 44.8201 106.174 44.8204C105.826 44.8208 105.449 43.2012 105.229 43.2012ZM65.3337 39.5186C67.4059 39.5168 67.0003 41.255 68.6335 41.2535C70.2033 41.2523 69.9191 39.5765 71.9596 39.5747C73.2469 39.5736 74.1885 39.7591 74.1889 39.9458C74.1893 40.3795 72.6519 40.3809 72.653 41.343C72.6535 42.3036 75.4471 43.1075 75.4478 43.8509C75.4482 44.0678 75.2598 44.13 75.0712 44.13C74.5388 44.1307 73.5648 43.6969 72.8434 43.6976C72.3408 43.6983 71.964 43.9467 71.9644 44.4746C71.9651 45.3419 72.9089 46.6753 72.9093 47.3254C72.9097 47.5427 72.7535 47.6978 72.5644 47.6978C71.81 47.6985 70.9927 45.3117 69.8922 45.3128C68.5428 45.3139 68.9541 48.7562 68.011 48.7567C67.1021 48.7575 68.1968 45.2532 66.5329 45.2546C65.5276 45.2557 64.4618 46.8384 63.8329 46.8391C63.6762 46.8391 63.5195 46.7769 63.5195 46.5902C63.5187 45.9699 65.2139 44.5733 65.2132 43.7979C65.2128 43.3943 64.8042 43.3028 64.364 43.3035C63.5791 43.3042 62.4806 43.6144 61.7893 43.6152C61.4746 43.6152 61.225 43.5221 61.225 43.3062C61.2243 42.6549 64.395 42.3418 64.3939 41.2575C64.3928 40.2329 62.9178 40.3898 62.9175 40.017C62.9171 39.7381 64.0779 39.5201 65.3337 39.5186ZM83.9253 42.4486C84.743 42.4479 85.15 42.4788 85.1507 43.4078C85.1515 44.1522 84.9947 44.8667 84.4621 44.8668C83.5511 44.8676 81.5714 43.6591 81.5706 43.1018C81.5703 42.7301 82.8902 42.4497 83.9253 42.4486ZM128.863 41.1768C128.439 41.1772 128.107 41.5159 128.107 41.9469C128.107 42.3753 128.44 42.713 128.865 42.7123C129.289 42.7119 129.622 42.3739 129.622 41.9454C129.622 41.5144 129.288 41.1764 128.863 41.1768Z" fill="#1F36C7"/>
</svg>
