<svg width="28" height="27" viewBox="0 0 28 27" fill="none" xmlns="http://www.w3.org/2000/svg">
<path fill-rule="evenodd" clip-rule="evenodd" d="M14 27C6.26801 27 0 20.9558 0 13.5C0 6.04416 6.26801 0 14 0C21.732 0 28 6.04416 28 13.5C28 20.9558 21.732 27 14 27ZM14.6054 10.1312C13.3515 10.6341 10.8455 11.675 7.08743 13.2539C6.47717 13.4879 6.15749 13.7168 6.12839 13.9407C6.07921 14.319 6.5705 14.4679 7.23952 14.6708C7.33052 14.6984 7.42482 14.727 7.52148 14.7573C8.17969 14.9636 9.0651 15.205 9.52539 15.2146C9.94291 15.2233 10.4089 15.0573 10.9234 14.7166C14.4347 12.431 16.2472 11.2758 16.361 11.2509C16.4413 11.2333 16.5526 11.2112 16.628 11.2758C16.7033 11.3404 16.6959 11.4628 16.6879 11.4956C16.6393 11.6957 14.7108 13.4246 13.7128 14.3193C13.4016 14.5982 13.1809 14.796 13.1358 14.8412C13.0348 14.9424 12.9318 15.0382 12.8328 15.1302C12.2213 15.6986 11.7627 16.1249 12.8581 16.821C13.3846 17.1555 13.8058 17.4321 14.2261 17.7081C14.685 18.0095 15.1428 18.3101 15.7351 18.6845C15.886 18.7799 16.0301 18.8789 16.1704 18.9754C16.7046 19.3426 17.1844 19.6725 17.7772 19.6199C18.1217 19.5893 18.4775 19.277 18.6582 18.3454C19.0853 16.1439 19.9248 11.3738 20.1188 9.4082C20.1358 9.23599 20.1144 9.01559 20.0972 8.91884C20.08 8.82209 20.0442 8.68424 19.9137 8.58219C19.7593 8.46134 19.5208 8.43586 19.4142 8.43758C18.9293 8.4459 18.1854 8.69533 14.6054 10.1312Z" fill="#969696"/>
</svg>
