<svg width="27" height="27" viewBox="0 0 27 27" fill="none" xmlns="http://www.w3.org/2000/svg">
<path fill-rule="evenodd" clip-rule="evenodd" d="M13.5 0C20.9558 0 27 6.04416 27 13.5C27 20.9558 20.9558 27 13.5 27C6.04416 27 0 20.9558 0 13.5C0 6.04416 6.04416 0 13.5 0ZM16.2066 10.4441C15.507 9.77523 14.6172 9.43467 13.6262 9.43467C11.8681 9.43467 10.3804 10.622 9.84955 12.2175C9.71455 12.6225 9.63785 13.0551 9.63785 13.5C9.63785 13.9449 9.71428 14.3775 9.84928 14.7825C10.3801 16.3779 11.8681 17.5653 13.6262 17.5653C14.5344 17.5653 15.3078 17.326 15.9123 16.921C16.6272 16.4424 17.1027 15.7275 17.2592 14.8838H13.6265V12.2727H19.9838C20.0635 12.7146 20.1065 13.1748 20.1065 13.6534C20.1065 15.7091 19.3701 17.4396 18.0938 18.6147C16.9769 19.6456 15.4487 20.25 13.6262 20.25C10.9876 20.25 8.70485 18.7374 7.59416 16.5313C7.137 15.6201 6.87648 14.5892 6.87648 13.5C6.87648 12.4108 7.13728 11.3798 7.59444 10.4686C8.70512 8.26257 10.9876 6.75 13.6262 6.75C15.4457 6.75 16.9736 7.41886 18.1426 8.50807L16.2066 10.4441Z" fill="#969696"/>
</svg>
